<?xml version="1.0" encoding="utf-8"?>
<!-- Generator: Adobe Illustrator 23.0.1, SVG Export Plug-In . SVG Version: 6.00 Build 0)  -->
<svg version="1.1" id="Layer_1" xmlns="http://www.w3.org/2000/svg" xmlns:xlink="http://www.w3.org/1999/xlink" x="0px" y="0px"
	 viewBox="0 0 1000 1000" style="enable-background:new 0 0 1000 1000;" xml:space="preserve">
<style type="text/css">
	.st0{fill:#434444;stroke:#434444;stroke-miterlimit:10;}
	.st1{fill:#F89521;}
	.st2{fill:#8FC640;}
	.st3{fill:#FCB918;}
	.st4{fill:#28BDBE;}
</style>
<g transform="matrix(.110121 0 0 .110121 5.936289 35.712631)">
	<path class="st0" d="M3541,4521.5h-169.3c-107.5,0-195,87.5-195,195v413.8h59v-379.6c0-93.2,76.1-168.4,168.4-168.4h100.8
		c93.2,0,168.4,76.1,168.4,168.4v378.6h62.8v-413.8C3736,4609,3648.5,4521.5,3541,4521.5z M2865.6,4512h-135.1
		c-115.1,0-209.3,94.2-209.3,209.3v208.3c0,115.1,94.2,209.3,209.3,209.3h135.1c115.1,0,209.3-94.2,209.3-209.3v-208.3
		C3074.9,4606.2,2980.7,4512,2865.6,4512z M3012.1,4940.1c0,76.1-62.8,138.9-138.9,138.9h-150.3c-76.1,0-138.9-62.8-138.9-138.9
		v-225.5c0-76.1,62.8-138.9,138.9-138.9h150.3c76.1,0,138.9,62.8,138.9,138.9V4940.1z M2239.6,4521.5h-169.3
		c-53.3,0-102.7,21.9-137.9,57.1v-279.7h-59v830.5h60.9v-379.6c0-93.2,76.1-168.4,168.4-168.4h100.8c93.2,0,168.4,76.1,168.4,168.4
		v379.6h62.8v-413.8C2434.7,4609,2347.1,4521.5,2239.6,4521.5z M5940.1,4513.9H5805c-115.1,0-209.3,94.2-209.3,209.3v208.3
		c0,115.1,94.2,209.3,209.3,209.3h135.1c115.1,0,209.3-94.2,209.3-209.3v-208.3C6149.4,4609,6055.2,4513.9,5940.1,4513.9z
		 M6086.6,4942.9c0,76.1-62.8,138.9-138.9,138.9h-150.3c-76.1,0-138.9-62.8-138.9-138.9v-225.5c0-76.1,62.8-138.9,138.9-138.9h150.3
		c76.1,0,138.9,62.8,138.9,138.9V4942.9z M7064.5,4527.2h-167.4c-66.6,0-124.6,34.2-159.8,85.6c-34.2-51.4-91.3-85.6-156-85.6
		h-163.6c-103.7,0-188.4,87.5-188.4,195V5136h57.1v-379.6c0-93.2,73.2-168.4,162.7-168.4h97c76.1,0,140.8,55.2,157.9,128.4V5137
		h65.6v-414.8c0-4.8,0-10.5-1-15.2c20.9-69.4,84.7-119.9,159.8-119.9h99.9c91.3,0,166.5,76.1,166.5,168.4v379.6h62.8v-412.9
		C7257.6,4614.7,7171,4527.2,7064.5,4527.2z M7684.7,4509.1h-135.1c-57.1,0-108.4,22.8-146.5,59.9v-273h-63.7v629.7
		c0,115.1,94.2,209.3,209.3,209.3h135.1c115.1,0,209.3-94.2,209.3-209.3v-208.3C7895,4603.3,7800.8,4509.1,7684.7,4509.1z
		 M7831.2,4937.2c0,76.1-62.8,138.9-138.9,138.9H7542c-76.1,0-138.9-62.8-138.9-138.9v-225.5c0-76.1,62.8-138.9,138.9-138.9h150.3
		c76.1,0,138.9,62.8,138.9,138.9V4937.2z M5468.3,5030.4c-23.8,27.6-58,45.7-95.1,45.7h-139.8c-71.3,0-129.4-62.8-129.4-138.9
		v-225.5c0-76.1,58-138.9,129.4-138.9h139.8c33.3,0,62.8,13.3,85.6,35.2h73.2c-34.2-59.9-96.1-99.9-166.5-99.9H5239
		c-107.5,0-195,94.2-195,209.3v208.3c0,115.1,87.5,209.3,195,209.3h126.5c72.3,0,135.1-42.8,169.3-105.6h-66.6V5030.4z
		 M4967.9,4513.9l-254,494.7c-2.9-1-6.7-1.9-10.5-2.9c-20-4.8-38.1-16.2-53.3-29.5c-37.1-34.2-65.6-88.5-79.9-136l-91.3-309.2
		c-1.9-5.7-2.9-11.4-4.8-17.1h-60.9c2.9,15.2,6.7,30.4,11.4,46.6l84.7,285.4c32.3,110.3,102.7,191.2,176.9,217.8l-140.8,274.9h60.9
		l422.4-823.8h-60.9L4967.9,4513.9z M8005.3,5016.2c0-28.5,6.7-50.4,20-65.6c13.3-15.2,32.3-21.9,56.1-21.9c24.7,0,44.7,7.6,58,21.9
		c14.3,15.2,20.9,37.1,20.9,65.6c0,27.6-6.7,49.5-20.9,64.7s-33.3,22.8-58,22.8c-21.9,0-40-6.7-54.2-20
		C8012.9,5069.4,8005.3,5047.6,8005.3,5016.2z M8284,4547.2h57.1V5136H8284V4547.2z M8304,4353.1h11.4c17.7-0.2,32.2,14.1,32.3,31.8
		c0,0.2,0,0.4,0,0.6v28.5c0.2,17.7-14.1,32.2-31.8,32.3c-0.2,0-0.4,0-0.6,0H8304c-17.7,0.2-32.2-14.1-32.3-31.8c0-0.2,0-0.4,0-0.6
		v-28.5c-0.2-17.7,14.1-32.2,31.8-32.3C8303.6,4353.1,8303.8,4353.1,8304,4353.1z M8810.1,4508.2H8675
		c-115.1,0-209.3,94.2-209.3,209.3v208.3c0,115.1,94.2,209.3,209.3,209.3h135.1c115.1,0,209.3-94.2,209.3-209.3v-208.3
		C9020.3,4602.4,8926.1,4508.2,8810.1,4508.2z M8956.6,4936.3c0,76.1-62.8,138.9-138.9,138.9h-150.3c-76.1,0-138.9-62.8-138.9-138.9
		v-225.5c0-76.1,62.8-138.9,138.9-138.9h150.3c76.1,0,138.9,62.8,138.9,138.9V4936.3z M3899.6,4845.9h293
		c90.4,0,165.5-70.4,165.5-156v-20c0-85.6-74.2-156-165.5-156h-185.5c-86.6,0-157.9,62.8-164.6,142.7v267.3
		c0,30.4,4.8,60.9,17.1,88.5c10.5,26.6,26.6,50.4,46.6,70.4c20,19,42.8,34.2,69.4,43.8c19,6.7,39,10.5,59,10.5h123.7
		c40,0,77.1-13.3,107.5-36.1c10.5-7.6,20.9-16.2,29.5-25.7c7.6-9.5,14.3-19,20.9-29.5c1.9-2.9,15.2-33.3,15.2-33.3l-56.1-8.6
		c-7.6,16.2-18.1,31.4-31.4,42.8c-21.9,19-48.5,30.4-79,30.4h-137.9c-12.4,0-24.7-1.9-36.1-5.7c-26.6-8.6-49.5-26.6-64.7-49.5
		c-8.6-12.4-14.3-24.7-19-39c-1.9-7.6-3.8-14.3-4.8-21.9c-1-8.6-2.9-16.2-2.9-24.7C3899.6,4936.3,3899.6,4845.9,3899.6,4845.9z
		 M3899.6,4657.5c2.9-19,9.5-36.1,20.9-49.5c18.1-22.8,47.6-37.1,79-37.1H4205c30.4,0,59,13.3,78,36.1
		c23.8,28.5,27.6,89.4,15.2,122.7c-13.3,37.1-51.4,62.8-93.2,62.8h-305.4C3899.6,4792.6,3899.6,4657.5,3899.6,4657.5z"/>
	<path class="st1" d="M155.4,4951.5l-201.7-349.1l201.7-348.2h402.4l201.7,348.2l-201.7,349.1H155.4z"/>
	<path class="st2" d="M926.9,4475.9l-245.4-424.3l245.4-424.3h489l245.4,424.3l-245.4,424.3L926.9,4475.9z"/>
	<path class="st3" d="M917.4,5574.6L672,5150.3L917.4,4726h489.9l244.5,424.3l-244.5,424.3H917.4z"/>
	<path class="st4" d="M1863.9,3975.5l-322.5-559.3l322.5-558.4h645.9l322.5,558.4l-322.5,559.3H1863.9z"/>
</g>
</svg>
