<svg version="1.1" id="Layer_1" xmlns="http://www.w3.org/2000/svg" xmlns:xlink="http://www.w3.org/1999/xlink" x="0px" y="0px"
	 width="100%" viewBox="0 0 178 178" enable-background="new 0 0 178 178" xml:space="preserve">
<path fill="#F9FBF7" opacity="1.000000" stroke="none" 
	d="
M95.000000,179.000000 
	C63.333336,179.000000 32.166672,179.000000 1.000004,179.000000 
	C1.000003,119.666672 1.000003,60.333344 1.000001,1.000012 
	C60.333324,1.000008 119.666649,1.000008 178.999969,1.000004 
	C178.999985,60.333324 178.999985,119.666649 179.000000,178.999985 
	C151.166672,179.000000 123.333336,179.000000 95.000000,179.000000 
M171.502670,30.036623 
	C169.049088,15.910929 159.171417,7.736552 144.067429,7.706843 
	C107.919106,7.635740 71.770370,7.635263 35.622116,7.726885 
	C18.304802,7.770778 7.799979,18.498842 7.790161,35.883083 
	C7.769744,72.032471 7.770490,108.181877 7.792009,144.331268 
	C7.801564,160.382202 17.987591,171.401642 33.990177,171.512527 
	C70.636299,171.766464 107.286301,171.415802 143.933578,171.574692 
	C155.862808,171.626404 164.310944,166.625626 170.257980,155.959656 
	C170.349106,155.471008 170.440231,154.982346 170.736786,153.713882 
	C171.086456,151.871719 171.436127,150.029572 172.404297,147.766556 
	C172.607407,146.817642 172.987320,145.868896 172.988113,144.919815 
	C173.018738,108.221924 173.027634,71.523987 172.963440,34.826195 
	C172.961105,33.486874 172.196671,32.148884 171.502670,30.036623 
z"/>
<path fill="#64A425" opacity="1.000000" stroke="none" 
	d="
M171.785797,148.187408 
	C171.436127,150.029572 171.086456,151.871719 170.387604,154.228699 
	C169.948975,155.229507 169.859528,155.715500 169.770081,156.201508 
	C164.310944,166.625626 155.862808,171.626404 143.933578,171.574692 
	C107.286301,171.415802 70.636299,171.766464 33.990177,171.512527 
	C17.987591,171.401642 7.801564,160.382202 7.792009,144.331268 
	C7.770490,108.181877 7.769744,72.032471 7.790161,35.883083 
	C7.799979,18.498842 18.304802,7.770778 35.622116,7.726885 
	C71.770370,7.635263 107.919106,7.635740 144.067429,7.706843 
	C159.171417,7.736552 169.049088,15.910929 171.471313,30.877913 
	C171.388763,69.736053 171.334488,107.752907 171.307404,145.769775 
	C171.306824,146.575531 171.619339,147.381531 171.785797,148.187408 
M119.572777,102.981888 
	C129.274094,100.417000 133.272446,94.306160 131.195786,84.370087 
	C131.029144,83.572762 131.067001,82.693718 131.193085,81.881088 
	C131.678482,78.752373 130.233978,77.189545 127.442657,75.810806 
	C107.615753,66.017487 87.891006,56.017574 68.113419,46.124054 
	C63.265102,43.698742 58.341599,41.423748 52.826584,38.779465 
	C52.826584,44.752998 52.583973,49.911392 52.962673,55.023766 
	C53.089378,56.734268 54.402275,59.081947 55.854923,59.852161 
	C65.688538,65.066086 75.704727,69.935684 85.662338,74.915710 
	C93.806137,78.988617 101.950554,83.060265 110.491325,87.330780 
	C108.839890,88.306206 107.738228,89.051888 106.557961,89.639748 
	C90.068451,97.852730 73.550079,106.008179 57.099079,114.297394 
	C55.483147,115.111618 53.156048,116.629784 53.053551,117.966476 
	C52.607231,123.787231 52.861835,129.661743 52.861835,136.370773 
	C75.538940,125.012253 97.217216,114.154022 119.572777,102.981888 
z"/>
<path fill="#CCDFB9" opacity="1.000000" stroke="none" 
	d="
M172.095047,147.976990 
	C171.619339,147.381531 171.306824,146.575531 171.307404,145.769775 
	C171.334488,107.752907 171.388763,69.736053 171.613678,31.264738 
	C172.196671,32.148884 172.961105,33.486874 172.963440,34.826195 
	C173.027634,71.523987 173.018738,108.221924 172.988113,144.919815 
	C172.987320,145.868896 172.607407,146.817642 172.095047,147.976990 
z"/>
<path fill="#CCDFB9" opacity="1.000000" stroke="none" 
	d="
M170.014038,156.080582 
	C169.859528,155.715500 169.948975,155.229507 170.284882,154.618591 
	C170.440231,154.982346 170.349106,155.471008 170.014038,156.080582 
z"/>
<path fill="#F4F5F1" opacity="1.000000" stroke="none" 
	d="
M119.234131,103.138840 
	C97.217216,114.154022 75.538940,125.012253 52.861835,136.370773 
	C52.861835,129.661743 52.607231,123.787231 53.053551,117.966476 
	C53.156048,116.629784 55.483147,115.111618 57.099079,114.297394 
	C73.550079,106.008179 90.068451,97.852730 106.557961,89.639748 
	C107.738228,89.051888 108.839890,88.306206 110.491325,87.330780 
	C101.950554,83.060265 93.806137,78.988617 85.662338,74.915710 
	C75.704727,69.935684 65.688538,65.066086 55.854923,59.852161 
	C54.402275,59.081947 53.089378,56.734268 52.962673,55.023766 
	C52.583973,49.911392 52.826584,44.752998 52.826584,38.779465 
	C58.341599,41.423748 63.265102,43.698742 68.113419,46.124054 
	C87.891006,56.017574 107.615753,66.017487 127.442657,75.810806 
	C130.233978,77.189545 131.678482,78.752373 131.193085,81.881088 
	C131.067001,82.693718 131.029144,83.572762 131.195786,84.370087 
	C133.272446,94.306160 129.274094,100.417000 119.234131,103.138840 
z"/>
</svg>