<svg id="Terminal--Streamline-Carbon" xmlns="http://www.w3.org/2000/svg" viewBox="0 0 32 32" height="16" width="16"><desc>Terminal Streamline Icon: https://streamlinehq.com</desc><defs></defs><title>terminal</title><path d="M26 4H6a2 2 0 0 0-2 2v20a2 2 0 0 0 2 2h20a2 2 0 0 0 2-2V6a2 2 0 0 0-2-2Zm0 2v4H6V6ZM6 26V12h20v14Z" transform="translate(0 .01)" fill="#000000"></path><path d="m10.76 16.18 2.82 2.83-2.82 2.83 1.41 1.41 4.24-4.24-4.24-4.24-1.41 1.41z" fill="#000000"></path><path id="_Transparent_Rectangle_" d="M0 0h32v32H0Z" fill="none"></path></svg>